<svg xmlns="http://www.w3.org/2000/svg" width="9" height="5.247" viewBox="0 0 9 5.247">
  <path id="Arrow-Down" d="M1.811,4.5,5.006,1.3A.775.775,0,0,0,5.223.972a.546.546,0,0,0,0-.321A.775.775,0,0,0,5.006.32L4.927.242A.775.775,0,0,0,4.6.024a.545.545,0,0,0-.321,0,.775.775,0,0,0-.331.218L.22,3.969a.751.751,0,0,0,0,1.061L3.945,8.758a.775.775,0,0,0,.331.218.545.545,0,0,0,.321,0,.775.775,0,0,0,.331-.218l.078-.078a.775.775,0,0,0,.218-.331.546.546,0,0,0,0-.321A.775.775,0,0,0,5.006,7.7Z" transform="translate(0 5.247) rotate(-90)" fill="#0045ff" fill-rule="evenodd"/>
</svg>
