<svg xmlns="http://www.w3.org/2000/svg" xmlns:xlink="http://www.w3.org/1999/xlink" width="79.733" height="27.907" viewBox="0 0 79.733 27.907">
  <defs>
    <clipPath id="clip-path">
      <rect width="79.733" height="27.907" fill="none"/>
    </clipPath>
    <clipPath id="clip-path-2">
      <path id="Path_200" data-name="Path 200" d="M884.387,310.352a4.562,4.562,0,0,0,3.232-1.328,4.484,4.484,0,0,0-.017-6.366,4.579,4.579,0,0,0-6.414,0,4.51,4.51,0,0,0,3.2,7.693Zm0,3.779A8.271,8.271,0,0,1,878.5,311.7a8.149,8.149,0,0,1-2.463-5.855,8.36,8.36,0,0,1,8.347-8.323,8.33,8.33,0,0,1,8.346,8.323,8.191,8.191,0,0,1-2.446,5.855A8.394,8.394,0,0,1,884.387,314.13Zm-17.016-.17a1.927,1.927,0,0,1-1.8-1.123l-5.439-12.646a2.075,2.075,0,0,1-.188-.766,1.921,1.921,0,0,1,.547-1.328,1.856,1.856,0,0,1,1.368-.579,1.931,1.931,0,0,1,1.728,1.123l3.729,8.987,3.712-8.97a1.914,1.914,0,0,1,1.745-1.14,1.855,1.855,0,0,1,1.368.579,1.939,1.939,0,0,1,.342,2.111l-5.4,12.629A1.786,1.786,0,0,1,867.371,313.96Zm-12.364.136a1.862,1.862,0,0,1-1.351-.545,1.714,1.714,0,0,1-.582-1.328V299.408a1.866,1.866,0,0,1,.582-1.328,1.959,1.959,0,0,1,1.368-.562,1.829,1.829,0,0,1,1.334.562,1.967,1.967,0,0,1,.53,1.328v12.817a1.864,1.864,0,0,1-1.881,1.872Zm0-18.263a2.1,2.1,0,0,1-2.087-2.076,2.07,2.07,0,0,1,.616-1.464,2.016,2.016,0,0,1,1.471-.6,2.046,2.046,0,0,1,1.471.6,2.071,2.071,0,0,1,.616,1.464,2,2,0,0,1-.616,1.464A2.092,2.092,0,0,1,855.007,295.833Zm-7.081,18.11a5.744,5.744,0,0,1-4.088-1.549,5.45,5.45,0,0,1-1.693-4.051V293.536a1.9,1.9,0,0,1,.53-1.362,1.719,1.719,0,0,1,1.3-.545,2,2,0,0,1,1.385.545,1.836,1.836,0,0,1,.582,1.362v14.808a1.725,1.725,0,0,0,1.9,1.889h.086a1.862,1.862,0,0,1,1.351.545,1.864,1.864,0,0,1-1.351,3.166Zm-34-15.033,9.924-7.442a2.345,2.345,0,0,1,2.811,0l9.925,7.442a2.32,2.32,0,0,1,.93,1.856v11.658a2.329,2.329,0,0,1-2.335,2.324H822.1a2.341,2.341,0,0,0-1.481.527l-3.8,3.1a2.343,2.343,0,0,1-3.286-.322,2.317,2.317,0,0,1-.53-1.474V300.766A2.319,2.319,0,0,1,813.93,298.91Zm1.229,1.624a.29.29,0,0,0-.116.232v15.817a.292.292,0,0,0,.477.225l3.8-3.1a4.393,4.393,0,0,1,2.777-.989h13.085a.291.291,0,0,0,.292-.291V300.766a.29.29,0,0,0-.116-.232l-9.925-7.442a.293.293,0,0,0-.351,0Z" transform="translate(-813 -291)" fill="#0045ff"/>
    </clipPath>
    <clipPath id="clip-path-3">
      <rect id="Rectangle_1255" data-name="Rectangle 1255" width="79.728" height="28.108" fill="#0045ff"/>
    </clipPath>
    <clipPath id="clip-path-6">
      <rect id="Rectangle_1253" data-name="Rectangle 1253" width="79.937" height="28.046" fill="#0045ff"/>
    </clipPath>
    <clipPath id="clip-path-7">
      <rect id="Rectangle_1252" data-name="Rectangle 1252" width="79.728" height="27.996" fill="#0045ff"/>
    </clipPath>
  </defs>
  <g id="Component_6_2" data-name="Component 6 – 2" clip-path="url(#clip-path)">
    <g id="Group_466" data-name="Group 466" clip-path="url(#clip-path-2)">
      <g id="Group_465" data-name="Group 465">
        <g id="Group_464" data-name="Group 464" clip-path="url(#clip-path-3)">
          <g id="Group_463" data-name="Group 463">
            <g id="Group_462" data-name="Group 462">
              <g id="Group_461" data-name="Group 461" clip-path="url(#clip-path-3)">
                <g id="Group_456" data-name="Group 456">
                  <g id="Group_455" data-name="Group 455" clip-path="url(#clip-path-3)">
                    <rect id="Rectangle_1249" data-name="Rectangle 1249" width="82.436" height="30.61" transform="translate(-1.351 -1.351)" fill="#0045ff"/>
                  </g>
                </g>
                <g id="Group_460" data-name="Group 460">
                  <g id="Group_459" data-name="Group 459" clip-path="url(#clip-path-6)">
                    <g id="Group_458" data-name="Group 458">
                      <g id="Group_457" data-name="Group 457" clip-path="url(#clip-path-7)">
                        <rect id="Rectangle_1251" data-name="Rectangle 1251" width="82.64" height="30.749" transform="translate(-1.351 -1.351)" fill="#0045ff"/>
                      </g>
                    </g>
                  </g>
                </g>
              </g>
            </g>
          </g>
        </g>
      </g>
    </g>
  </g>
</svg>
